<?xml version="1.0" encoding="utf-8"?>
<!-- Generator: Adobe Illustrator 25.1.0, SVG Export Plug-In . SVG Version: 6.00 Build 0)  -->
<svg version="1.1" xmlns="http://www.w3.org/2000/svg" xmlns:xlink="http://www.w3.org/1999/xlink" x="0px" y="0px"
	 viewBox="0 0 2500 444.08" style="enable-background:new 0 0 2500 444.08;" xml:space="preserve">
<style type="text/css">
	.st0{fill:url(#SVGID_1_);}
	.st1{fill:#13304C;}
	.st2{fill:url(#SVGID_2_);}
	.st3{fill:url(#SVGID_3_);}
	.st4{fill:url(#SVGID_4_);}
	.st5{fill:url(#SVGID_5_);}
	.st6{fill:url(#SVGID_6_);}
	.st7{fill:url(#SVGID_7_);}
	.st8{fill:url(#SVGID_8_);}
	.st9{fill:url(#SVGID_9_);}
	.st10{fill:url(#SVGID_10_);}
	.st11{fill:url(#SVGID_11_);}
	.st12{fill:url(#SVGID_12_);}
</style>
<g id="Layer_1">
</g>
<g id="Layer_2">
	<linearGradient id="SVGID_1_" gradientUnits="userSpaceOnUse" x1="389.26" y1="-64.1655" x2="386.5298" y2="402.7124">
		<stop  offset="0" style="stop-color:#00EAEF"/>
		<stop  offset="1" style="stop-color:#1B75BC"/>
	</linearGradient>
	<rect x="352.31" y="113.78" class="st0" width="70.39" height="242.76"/>
	<path class="st1" d="M745.62,235.16c0,76.26-52.79,124.99-120.93,124.99c-30.23,0-55.05-9.48-73.1-29.33v113.26H481.2v-330.3h67.23
		v27.98c17.6-21.21,43.77-31.59,76.26-31.59C692.83,110.17,745.62,158.9,745.62,235.16z M674.33,235.16
		c0-41.96-26.62-67.23-61.82-67.23c-35.19,0-61.82,25.27-61.82,67.23c0,41.96,26.62,67.23,61.82,67.23
		C647.71,302.39,674.33,277.12,674.33,235.16z"/>
	<path class="st1" d="M1033.78,217.56v138.98h-70.39V228.39c0-39.26-18.05-57.31-49.18-57.31c-33.84,0-58.21,20.76-58.21,65.43
		v120.03h-70.39V21.73H856v117.32c18.95-18.95,46.02-28.88,77.16-28.88C990.47,110.17,1033.78,143.56,1033.78,217.56z"/>
	<path class="st1" d="M1329.62,255.01h-183.65c6.77,30.23,32.49,48.73,69.49,48.73c25.72,0,44.22-7.67,60.92-23.46l37.45,40.61
		c-22.56,25.72-56.4,39.26-100.17,39.26c-83.93,0-138.53-52.8-138.53-124.99c0-72.65,55.5-124.99,129.5-124.99
		c71.29,0,126.34,47.83,126.34,125.89C1330.97,241.48,1330.07,249.15,1329.62,255.01z M1145.07,213.95h119.58
		c-4.96-30.68-27.98-50.54-59.56-50.54C1173.04,163.41,1150.03,182.82,1145.07,213.95z"/>
	<path class="st1" d="M1524.08,110.17v64.98c-5.87-0.45-10.38-0.9-15.79-0.9c-38.81,0-64.53,21.21-64.53,67.68v114.61h-70.39V113.78
		h67.23v32.04C1457.75,122.35,1486.63,110.17,1524.08,110.17z"/>
	<g>
		<path class="st1" d="M219.45,283.54c-14.87,8.92-32.27,14.05-50.86,14.05c-18.58,0-35.99-5.13-50.86-14.05
			c-13.98-8.39-25.72-20.13-34.08-34.11c-8.92-14.87-14.05-32.25-14.05-50.83s5.13-35.99,14.05-50.86
			c8.39-13.98,20.13-25.72,34.11-34.08c14.87-8.92,32.25-14.05,50.83-14.05c18.58,0,35.96,5.13,50.83,14.05
			c13.98,8.36,25.72,20.1,34.11,34.08l50.11-50.11c-9.69-12.92-21.16-24.42-34.11-34.08c-28.15-21.09-63.1-33.58-100.94-33.58
			S95.81,42.47,67.66,63.56c-12.94,9.67-24.42,21.16-34.11,34.08C12.49,125.79,0,160.74,0,198.61s12.49,72.81,33.55,100.94
			c9.69,12.94,21.16,24.42,34.11,34.08c28.15,21.09,63.1,33.57,100.94,33.57s72.79-12.49,100.94-33.57
			c12.94-9.67,24.42-21.14,34.11-34.08l-50.11-50.11C245.17,263.42,233.43,275.16,219.45,283.54z"/>
	</g>
	<linearGradient id="SVGID_2_" gradientUnits="userSpaceOnUse" x1="388.1147" y1="-64.1722" x2="385.3844" y2="402.7057">
		<stop  offset="0" style="stop-color:#00EAEF"/>
		<stop  offset="1" style="stop-color:#1B75BC"/>
	</linearGradient>
	<path class="st2" d="M415.29,11.51c-15.35-15.35-40.23-15.34-55.57,0.01v0c-15.33,15.34-15.33,40.21,0.01,55.55
		c15.34,15.34,40.2,15.34,55.55,0.01C430.63,51.73,430.63,26.85,415.29,11.51L415.29,11.51z"/>
	<linearGradient id="SVGID_3_" gradientUnits="userSpaceOnUse" x1="1693.6648" y1="-56.5374" x2="1690.9344" y2="410.3405">
		<stop  offset="0" style="stop-color:#00EAEF"/>
		<stop  offset="1" style="stop-color:#1B75BC"/>
	</linearGradient>
	<path class="st3" d="M1703.67,117.39c-41.06,0-73.08,16.69-90.24,45.58v-43.78h-30.67v237.35h32.03V232
		c0-54.14,32.05-85.74,83.03-85.74c45.13,0,71.3,25.72,71.3,75.81v134.47h32.03V218.91
		C1801.14,150.79,1761.43,117.39,1703.67,117.39z"/>
	<linearGradient id="SVGID_4_" gradientUnits="userSpaceOnUse" x1="1959.8887" y1="-54.9805" x2="1957.1584" y2="411.8973">
		<stop  offset="0" style="stop-color:#00EAEF"/>
		<stop  offset="1" style="stop-color:#1B75BC"/>
	</linearGradient>
	<path class="st4" d="M2034.21,243.73c0,54.14-31.13,86.19-80.76,86.19c-45.13,0-71.3-25.72-71.3-76.26V119.19h-32.05v137.63
		c0,68.15,39.73,101.98,100.17,101.98c37.9,0,68.6-16.69,85.29-45.58v43.33h30.7V119.19h-32.05V243.73z"/>
	<linearGradient id="SVGID_5_" gradientUnits="userSpaceOnUse" x1="2405.7695" y1="-52.373" x2="2403.0393" y2="414.5048">
		<stop  offset="0" style="stop-color:#00EAEF"/>
		<stop  offset="1" style="stop-color:#1B75BC"/>
	</linearGradient>
	<polygon class="st5" points="2347.94,329.92 2497.3,140.4 2497.3,119.19 2309.58,119.19 2309.58,146.26 2456.24,146.26 
		2306.88,335.33 2306.88,356.54 2500,356.54 2500,329.92 	"/>
	<linearGradient id="SVGID_6_" gradientUnits="userSpaceOnUse" x1="2188.9268" y1="-53.6411" x2="2186.1965" y2="413.2367">
		<stop  offset="0" style="stop-color:#00EAEF"/>
		<stop  offset="1" style="stop-color:#1B75BC"/>
	</linearGradient>
	<polygon class="st6" points="2188.95,67.3 2156.93,67.3 2156.93,119.19 2114.52,119.19 2114.52,146.26 2156.93,146.26 
		2156.93,289.76 2156.93,356.54 2188.95,356.54 2188.95,350.81 2188.95,146.26 2261.16,146.26 2261.16,119.19 2188.95,119.19 	"/>
</g>
</svg>
